<svg id="Layer_1" data-name="Layer 1" xmlns="http://www.w3.org/2000/svg" viewBox="0 0 535.69 84.09"><defs><style>.cls-1{fill:#a3195b;opacity:0.78;}.cls-2{fill:#e71d73;opacity:0.79;}.cls-3{fill:#e6007e;}.cls-4{fill:#575756;}</style></defs><title>roseman_labs_white_bg_fonts</title><polygon class="cls-1" points="49.78 76.01 98.08 63.9 82.29 0 54.24 4.45 49.78 76.01"/><polyline class="cls-2" points="11.43 2.96 90.72 5.59 82.2 81.87 4.19 67.78"/><polygon class="cls-1" points="54.24 4.45 0 13.06 17.55 84.09 49.78 76.01 54.24 4.45"/><path class="cls-3" d="M34.25,5.6" transform="translate(-14.4 -11.53)"/><path class="cls-4" d="M147.74,47.08h-6.06v20h-9.53V17.2H147q19.77,0,19.78,14.65a13.26,13.26,0,0,1-2.46,8.23,16.93,16.93,0,0,1-7.65,5.26l13.06,21.73h-11Zm-6.06-6.86h5.92q4.54,0,6.89-2c1.56-1.33,2.35-3.46,2.35-6.39q0-4.05-2.42-5.88t-7.62-1.84h-5.12Z" transform="translate(-14.4 -11.53)"/><path class="cls-4" d="M201.83,33.18q4.74,5.39,4.73,14.76a24.56,24.56,0,0,1-2.16,10.58,16.58,16.58,0,0,1-6.21,7.11,17.78,17.78,0,0,1-9.6,2.52q-8.44,0-13.21-5.38t-4.76-14.83a24.13,24.13,0,0,1,2.17-10.53A16.37,16.37,0,0,1,179,30.33a18,18,0,0,1,9.63-2.52Q197.11,27.81,201.83,33.18ZM180.36,47.94q0,6.8,2.06,10a7.51,7.51,0,0,0,12.34,0q2.06-3.24,2.06-10T194.76,38a6.77,6.77,0,0,0-6.1-3.21Q180.37,34.81,180.36,47.94Z" transform="translate(-14.4 -11.53)"/><path class="cls-4" d="M239,32.35l-3.61,5.42a17.93,17.93,0,0,0-9.6-3.11,7.41,7.41,0,0,0-4.26,1.05,3.22,3.22,0,0,0-1.51,2.78,3.45,3.45,0,0,0,.65,2.16,5.9,5.9,0,0,0,2.34,1.63,39.09,39.09,0,0,0,5,1.69q6.21,1.66,9.2,4.41a9.83,9.83,0,0,1,3,7.65,10.28,10.28,0,0,1-4.62,8.91,19.65,19.65,0,0,1-11.48,3.21,24.27,24.27,0,0,1-8.55-1.44,20.78,20.78,0,0,1-6.68-4l4.62-5.2A17.07,17.07,0,0,0,224,61.3a8.8,8.8,0,0,0,5-1.23,3.88,3.88,0,0,0,1.84-3.39,4.49,4.49,0,0,0-.69-2.64,5.53,5.53,0,0,0-2.45-1.73,50.27,50.27,0,0,0-5.52-1.84q-5.85-1.59-8.59-4.44a9.84,9.84,0,0,1-2.74-7.11,9.4,9.4,0,0,1,1.84-5.7,12.21,12.21,0,0,1,5.19-4,19.35,19.35,0,0,1,7.69-1.44A21.48,21.48,0,0,1,239,32.35Z" transform="translate(-14.4 -11.53)"/><path class="cls-4" d="M277.07,50.83h-24c.29,3.71,1.25,6.35,2.89,7.94a8.9,8.9,0,0,0,6.49,2.38,13.67,13.67,0,0,0,4.77-.83A22.2,22.2,0,0,0,272,57.76L275.85,63a22,22,0,0,1-14.15,5.12q-8.73,0-13.46-5.34t-4.73-14.58a26.22,26.22,0,0,1,2-10.5,16.73,16.73,0,0,1,5.85-7.29,15.67,15.67,0,0,1,9.09-2.63q8,0,12.42,5.08t4.4,14.19C277.29,47.56,277.22,48.81,277.07,50.83Zm-8.95-6.42q0-10-7.43-10a6.3,6.3,0,0,0-5.3,2.49q-1.92,2.49-2.28,8h15Z" transform="translate(-14.4 -11.53)"/><path class="cls-4" d="M331.63,31a12.43,12.43,0,0,1,2.75,8.48V67.07h-9.24V40.87q0-6.13-4.19-6.13a5.68,5.68,0,0,0-3.86,1.4,17.56,17.56,0,0,0-3.35,4.37V67.07H304.5V40.87q0-6.13-4.19-6.13a5.77,5.77,0,0,0-3.93,1.4A17.81,17.81,0,0,0,293,40.51V67.07h-9.24V28.89h8l.72,5q4.32-6.06,11-6.06a9.77,9.77,0,0,1,5.74,1.69,9.5,9.5,0,0,1,3.5,4.73,17.6,17.6,0,0,1,5.09-4.76,12.16,12.16,0,0,1,6.38-1.66A9.26,9.26,0,0,1,331.63,31Z" transform="translate(-14.4 -11.53)"/><path class="cls-4" d="M372.23,60.25a4.35,4.35,0,0,0,2.2,1.62L372.48,68a11.84,11.84,0,0,1-5.3-1.59,8.13,8.13,0,0,1-3.14-4,12.19,12.19,0,0,1-4.87,4.29,14.85,14.85,0,0,1-6.53,1.41c-3.81,0-6.81-1.08-9-3.25a11.37,11.37,0,0,1-3.32-8.51q0-6.21,4.51-9.49t12.89-3.29h4.76V41.45q0-3.69-1.7-5.16t-5.44-1.48a32.13,32.13,0,0,0-10.11,2L343,30.55a38.49,38.49,0,0,1,13.85-2.74q14.66,0,14.65,13.13V57A6.11,6.11,0,0,0,372.23,60.25Zm-9.78-3.5V49h-3.82q-9,0-8.95,6.64a6.09,6.09,0,0,0,1.37,4.25,5.17,5.17,0,0,0,4,1.52Q359.79,61.44,362.45,56.75Z" transform="translate(-14.4 -11.53)"/><path class="cls-4" d="M409.25,30.87q2.85,3.07,2.85,8.56V67.07h-9.23V40.87c0-2.26-.4-3.85-1.19-4.76a4.39,4.39,0,0,0-3.5-1.37,6.87,6.87,0,0,0-4.3,1.47,17,17,0,0,0-3.72,4.3V67.07h-9.23V28.89h8l.72,5q4.69-6.06,11.62-6.06Q406.4,27.81,409.25,30.87Z" transform="translate(-14.4 -11.53)"/><path class="cls-4" d="M426,17.92V65.48h20.79l-.29,1.59H424.37V17.92Z" transform="translate(-14.4 -11.53)"/><path class="cls-4" d="M476.23,64.4a4.33,4.33,0,0,0,2.63,2.24l-.43,1.15a5.67,5.67,0,0,1-3.25-2.35,10,10,0,0,1-1.08-4.94q-4.11,7.29-12.2,7.29c-3.51,0-6.27-1-8.26-3a11,11,0,0,1-3-8.08,10.47,10.47,0,0,1,4-8.74q4-3.09,10.76-3.1h8.51V40.36c0-3.36-.73-5.88-2.2-7.54s-3.93-2.49-7.4-2.49A27.66,27.66,0,0,0,454,32.71l-.5-1.37a28.59,28.59,0,0,1,10.82-2.45q5.85,0,8.52,2.85t2.67,8.48V59.13A13.13,13.13,0,0,0,476.23,64.4Zm-7.18-.11a15.26,15.26,0,0,0,4.83-5.81V46.28h-8.23q-6.27,0-9.77,2.67a9.13,9.13,0,0,0-3.51,7.73,9.5,9.5,0,0,0,2.57,7,9.39,9.39,0,0,0,7,2.56A12.36,12.36,0,0,0,469.05,64.29Z" transform="translate(-14.4 -11.53)"/><path class="cls-4" d="M514.23,33.83q3.39,5,3.39,14.18t-3.5,14.55A11.46,11.46,0,0,1,504,67.79a12.83,12.83,0,0,1-6.79-1.8,16.28,16.28,0,0,1-5-4.77l-.14,5.85H490.7V14.17l1.59-.22V35.6q4.83-6.71,12.12-6.71A11.2,11.2,0,0,1,514.23,33.83Zm-1.34,27.68Q516,56.76,516,48t-3-13.17a9.72,9.72,0,0,0-8.66-4.51,12.11,12.11,0,0,0-6.71,1.81,20.77,20.77,0,0,0-5.41,5.34V59.42q4.6,6.86,11.62,6.85A10.11,10.11,0,0,0,512.89,61.51Z" transform="translate(-14.4 -11.53)"/><path class="cls-4" d="M543.92,29.86a18.5,18.5,0,0,1,5.16,3L548.14,34a19.22,19.22,0,0,0-4.79-2.81,14.85,14.85,0,0,0-5.31-.87,11.25,11.25,0,0,0-7,2.13,6.79,6.79,0,0,0-2.77,5.67,6.07,6.07,0,0,0,2.27,5q2.26,1.8,8,3.32a36.48,36.48,0,0,1,6.9,2.53,8.39,8.39,0,0,1,3.6,3.28,10.23,10.23,0,0,1,1.12,5.09,9.37,9.37,0,0,1-3.39,7.5,13.07,13.07,0,0,1-8.8,2.89,17.91,17.91,0,0,1-7-1.23A21.83,21.83,0,0,1,525.27,63l.94-1.09a19.31,19.31,0,0,0,5.3,3.29,17.25,17.25,0,0,0,6.39,1,11.83,11.83,0,0,0,7.57-2.34,7.84,7.84,0,0,0,3-6.53,8.86,8.86,0,0,0-1-4.44,7.55,7.55,0,0,0-3.21-2.85,34.5,34.5,0,0,0-6.5-2.31q-6.06-1.59-8.62-3.75a7.35,7.35,0,0,1-2.56-5.92,8.09,8.09,0,0,1,3.28-6.64,12.7,12.7,0,0,1,8.12-2.6A17,17,0,0,1,543.92,29.86Z" transform="translate(-14.4 -11.53)"/><path class="cls-4" d="M139.56,83.08A3.36,3.36,0,0,1,140.91,86a3.5,3.5,0,0,1-1.4,3.06,6.26,6.26,0,0,1-3.7,1h-1.63v4.47h-2V82.1h3.59A6.41,6.41,0,0,1,139.56,83.08ZM138,88a2.21,2.21,0,0,0,.79-1.95q0-2.37-3.06-2.37h-1.54V88.5h1.52A4,4,0,0,0,138,88Z" transform="translate(-14.4 -11.53)"/><path class="cls-4" d="M154.62,89.36H152.7v5.15h-2V82.1h3.58a6.56,6.56,0,0,1,3.79.9,3.07,3.07,0,0,1,1.27,2.68,3,3,0,0,1-.68,2.07A4.35,4.35,0,0,1,156.55,89l3.52,5.53h-2.4Zm-.18-1.5a3.58,3.58,0,0,0,2.08-.5,2,2,0,0,0,.69-1.68,1.78,1.78,0,0,0-.71-1.57,4.05,4.05,0,0,0-2.26-.49H152.7v4.24Z" transform="translate(-14.4 -11.53)"/><path class="cls-4" d="M171.71,82.1V94.51h-2V82.1Z" transform="translate(-14.4 -11.53)"/><path class="cls-4" d="M191.42,82.1l-4.11,12.41h-2.25L180.9,82.1h2.16l3.17,10.45,3.14-10.45Z" transform="translate(-14.4 -11.53)"/><path class="cls-4" d="M207.11,94.51l-.93-3h-4.79l-.93,3h-2.07l4.19-12.41h2.5l4.16,12.41Zm-5.24-4.6h3.83l-1.92-6.18Z" transform="translate(-14.4 -11.53)"/><path class="cls-4" d="M224.9,82.19a6,6,0,0,1,1.68,1l-1,1.24a4,4,0,0,0-2.53-.91,3.18,3.18,0,0,0-2.55,1.16,5.55,5.55,0,0,0-1,3.62,5.75,5.75,0,0,0,1,3.65A3.13,3.13,0,0,0,223,93.1a3.54,3.54,0,0,0,1.43-.27,6.75,6.75,0,0,0,1.3-.74l1,1.21a4.72,4.72,0,0,1-1.59,1,5.79,5.79,0,0,1-2.23.41A5.59,5.59,0,0,1,220,94a5.07,5.07,0,0,1-2-2.21,8.08,8.08,0,0,1-.7-3.53,7.41,7.41,0,0,1,.74-3.45,5.15,5.15,0,0,1,2-2.18,5.3,5.3,0,0,1,2.79-.75A5.72,5.72,0,0,1,224.9,82.19Z" transform="translate(-14.4 -11.53)"/><path class="cls-4" d="M244.46,82.1l-4.24,7.65v4.76h-2.05V89.78L234,82.1h2.22l3.06,6.05,3.1-6.05Z" transform="translate(-14.4 -11.53)"/><path class="cls-4" d="M275.35,90.94a2.93,2.93,0,0,1-1.4,2.74,7.63,7.63,0,0,1-3.88.83h-3.74V82.1h3.21q5.23,0,5.24,3.21a2.23,2.23,0,0,1-.66,1.74,4.22,4.22,0,0,1-1.76.88C274.35,88.29,275.35,89.3,275.35,90.94Zm-7-7.3v3.63h1.85a3.08,3.08,0,0,0,1.82-.49,1.58,1.58,0,0,0,.69-1.38A1.43,1.43,0,0,0,272,84a5.08,5.08,0,0,0-2.23-.38Zm4.06,8.87a1.64,1.64,0,0,0,.81-1.61,1.8,1.8,0,0,0-.79-1.65,3.68,3.68,0,0,0-2.05-.51h-2v4.2h1.72A5,5,0,0,0,272.41,92.51Z" transform="translate(-14.4 -11.53)"/><path class="cls-4" d="M293.3,82.1l-4.24,7.65v4.76H287V89.78l-4.22-7.68H285l3.06,6.05,3.1-6.05Z" transform="translate(-14.4 -11.53)"/><path class="cls-4" d="M322.87,83.41c1.2.87,1.81,2.47,1.81,4.8s-.61,3.93-1.81,4.88a7,7,0,0,1-4.42,1.42h-3.28V82.1h2.9A7.94,7.94,0,0,1,322.87,83.41Zm-5.68.25V93h1.41a4,4,0,0,0,2.86-1q1.08-1,1.08-3.72c0-1.79-.37-3-1.1-3.62a4.44,4.44,0,0,0-3-.93Z" transform="translate(-14.4 -11.53)"/><path class="cls-4" d="M342.23,82.1,342,83.66h-5V87.4h4.38V89H337v4h5.37v1.57H335V82.1Z" transform="translate(-14.4 -11.53)"/><path class="cls-4" d="M358,82.25a6,6,0,0,1,1.82,1.12l-1.08,1.21a4.86,4.86,0,0,0-1.42-.83,4.35,4.35,0,0,0-1.55-.27,3,3,0,0,0-1.65.42,1.35,1.35,0,0,0-.64,1.21,1.46,1.46,0,0,0,.23.84,2.17,2.17,0,0,0,.84.61,12.63,12.63,0,0,0,1.77.64,7.88,7.88,0,0,1,2.88,1.39,3,3,0,0,1,1,2.44,3.28,3.28,0,0,1-1.27,2.69,5.38,5.38,0,0,1-3.48,1,7.46,7.46,0,0,1-2.58-.43,5.88,5.88,0,0,1-2-1.22l1.08-1.26a5.16,5.16,0,0,0,3.46,1.3,3.25,3.25,0,0,0,1.92-.53,1.68,1.68,0,0,0,.76-1.47,1.86,1.86,0,0,0-.23-1,2,2,0,0,0-.82-.67,9.78,9.78,0,0,0-1.7-.63,7.64,7.64,0,0,1-3-1.43,2.83,2.83,0,0,1-.94-2.22,3,3,0,0,1,.55-1.75,3.6,3.6,0,0,1,1.52-1.17,5.5,5.5,0,0,1,2.2-.42A6.45,6.45,0,0,1,358,82.25Z" transform="translate(-14.4 -11.53)"/><path class="cls-4" d="M372.15,82.1V94.51h-2V82.1Z" transform="translate(-14.4 -11.53)"/><path class="cls-4" d="M390.39,82.23a6.83,6.83,0,0,1,1.85,1.06l-1.17,1.18a5.63,5.63,0,0,0-1.34-.76,4.55,4.55,0,0,0-1.5-.23,3.39,3.39,0,0,0-2.62,1.19,5.33,5.33,0,0,0-1.05,3.61,6.24,6.24,0,0,0,.87,3.71A3,3,0,0,0,388,93.14a5,5,0,0,0,2.4-.53V89.09h-2.22L388,87.53h4.42v6a8.47,8.47,0,0,1-4.47,1.17,5.06,5.06,0,0,1-4-1.65,8.37,8.37,0,0,1-.66-8.26,5.44,5.44,0,0,1,2.1-2.2,5.59,5.59,0,0,1,2.86-.76A6.47,6.47,0,0,1,390.39,82.23Z" transform="translate(-14.4 -11.53)"/><path class="cls-4" d="M412.15,94.51h-2.71L404.38,84.1l.07.62c0,.14.05.63.12,1.46s.1,1.8.1,2.91v5.42H402.8V82.1h2.64l5.12,10.45a14.63,14.63,0,0,1-.18-1.72c-.07-.88-.1-1.68-.1-2.42V82.1h1.87Z" transform="translate(-14.4 -11.53)"/></svg>