<svg id="Layer_1" data-name="Layer 1" xmlns="http://www.w3.org/2000/svg" viewBox="0 0 535.69 84.09"><defs><style>.cls-1{fill:#a3195b;opacity:0.78;}.cls-1,.cls-2{isolation:isolate;}.cls-2{fill:#e71d73;opacity:0.79;}.cls-3,.cls-4{fill:#fff;}.cls-4{stroke:#fff;stroke-miterlimit:10;}</style></defs><polygon class="cls-1" points="49.78 76.01 98.08 63.9 82.29 0 54.24 4.45 49.78 76.01"/><polyline class="cls-2" points="11.43 2.96 90.72 5.59 82.2 81.87 4.19 67.78"/><polygon class="cls-1" points="54.24 4.45 0 13.06 17.55 84.09 49.78 76.01 54.24 4.45"/><path class="cls-3" d="M133.34,35.55h-6.06v20h-9.53V5.67H132.6q19.77,0,19.78,14.65a13.23,13.23,0,0,1-2.46,8.23,17,17,0,0,1-7.65,5.26l13.06,21.73h-11Zm-6.06-6.86h5.92c3,0,5.32-.67,6.89-2s2.35-3.46,2.35-6.39q0-4.05-2.42-5.88t-7.62-1.84h-5.12Z"/><path class="cls-3" d="M187.43,21.65q4.74,5.38,4.73,14.76A24.56,24.56,0,0,1,190,47a16.59,16.59,0,0,1-6.21,7.11,17.82,17.82,0,0,1-9.6,2.52q-8.44,0-13.21-5.38t-4.76-14.83a24,24,0,0,1,2.17-10.53,16.33,16.33,0,0,1,6.21-7.08,18,18,0,0,1,9.63-2.52Q182.71,16.28,187.43,21.65ZM166,36.41q0,6.8,2.06,10a7.51,7.51,0,0,0,10.45,1.89,7.38,7.38,0,0,0,1.89-1.89q2.05-3.24,2.06-10t-2.06-9.94a6.78,6.78,0,0,0-6.1-3.21Q166,23.28,166,36.41Z"/><path class="cls-3" d="M224.6,20.82,221,26.24a18,18,0,0,0-9.6-3.11,7.41,7.41,0,0,0-4.26,1.05A3.2,3.2,0,0,0,205.62,27a3.49,3.49,0,0,0,.65,2.16,5.8,5.8,0,0,0,2.34,1.63,38.69,38.69,0,0,0,5,1.69q6.21,1.66,9.2,4.41a9.84,9.84,0,0,1,3,7.65,10.3,10.3,0,0,1-4.62,8.91,19.69,19.69,0,0,1-11.48,3.21,24.2,24.2,0,0,1-8.55-1.44,20.75,20.75,0,0,1-6.68-4L199.1,46a17.09,17.09,0,0,0,10.5,3.79,8.79,8.79,0,0,0,5-1.23,3.88,3.88,0,0,0,1.84-3.39,4.48,4.48,0,0,0-.69-2.64,5.53,5.53,0,0,0-2.45-1.73,51,51,0,0,0-5.52-1.84q-5.85-1.59-8.59-4.44a9.85,9.85,0,0,1-2.74-7.11,9.42,9.42,0,0,1,1.84-5.7,12.25,12.25,0,0,1,5.19-4,19.32,19.32,0,0,1,7.69-1.44A21.48,21.48,0,0,1,224.6,20.82Z"/><path class="cls-3" d="M262.67,39.3h-24c.29,3.71,1.25,6.35,2.89,7.94a8.88,8.88,0,0,0,6.49,2.38,13.61,13.61,0,0,0,4.77-.83,21.78,21.78,0,0,0,4.78-2.56l3.85,5.24a22,22,0,0,1-14.15,5.12q-8.73,0-13.46-5.34t-4.73-14.58a26.27,26.27,0,0,1,2-10.5A16.72,16.72,0,0,1,237,18.88a15.7,15.7,0,0,1,9.09-2.63q8,0,12.42,5.08t4.4,14.19C262.89,36,262.82,37.28,262.67,39.3Zm-9-6.42q0-10-7.43-10a6.3,6.3,0,0,0-5.3,2.49q-1.92,2.49-2.28,8h15Z"/><path class="cls-3" d="M317.23,19.47A12.47,12.47,0,0,1,320,28V55.54h-9.24V29.34q0-6.14-4.19-6.13a5.69,5.69,0,0,0-3.86,1.4A17.59,17.59,0,0,0,299.34,29V55.54H290.1V29.34q0-6.14-4.19-6.13a5.77,5.77,0,0,0-3.93,1.4A17.71,17.71,0,0,0,278.6,29V55.54h-9.24V17.36h8l.72,5q4.32-6.06,11-6.06A9.78,9.78,0,0,1,294.82,18a9.51,9.51,0,0,1,3.5,4.73A17.51,17.51,0,0,1,303.41,18a12.2,12.2,0,0,1,6.38-1.66A9.26,9.26,0,0,1,317.23,19.47Z"/><path class="cls-3" d="M357.83,48.72a4.36,4.36,0,0,0,2.2,1.62l-1.95,6.13a11.81,11.81,0,0,1-5.3-1.59,8.11,8.11,0,0,1-3.14-4,12.23,12.23,0,0,1-4.87,4.29,14.86,14.86,0,0,1-6.53,1.41q-5.72,0-9-3.25a11.36,11.36,0,0,1-3.32-8.51q0-6.21,4.51-9.49T343.32,32h4.76V29.92q0-3.69-1.7-5.16c-1.13-1-2.95-1.47-5.44-1.48a32,32,0,0,0-10.11,2L328.6,19a38.44,38.44,0,0,1,13.85-2.74q14.66,0,14.65,13.13V45.47A6.12,6.12,0,0,0,357.83,48.72Zm-9.78-3.5V37.47h-3.82q-9,0-9,6.64a6.07,6.07,0,0,0,1.37,4.25,5.19,5.19,0,0,0,4,1.52Q345.39,49.91,348.05,45.22Z"/><path class="cls-3" d="M394.85,19.34q2.85,3.07,2.85,8.56V55.54h-9.23V29.34c0-2.26-.4-3.85-1.19-4.76a4.39,4.39,0,0,0-3.5-1.37,6.91,6.91,0,0,0-4.3,1.47,17,17,0,0,0-3.72,4.3V55.54h-9.23V17.36h8l.72,5q4.69-6.06,11.62-6.06Q392,16.28,394.85,19.34Z"/><path class="cls-4" d="M411.6,6.39V54h20.79l-.29,1.59H410V6.39Z"/><path class="cls-4" d="M461.83,52.87a4.33,4.33,0,0,0,2.63,2.24L464,56.26a5.69,5.69,0,0,1-3.25-2.35A10,10,0,0,1,459.7,49q-4.11,7.29-12.2,7.29c-3.51,0-6.27-1-8.26-3a11,11,0,0,1-3-8.08,10.47,10.47,0,0,1,4-8.74q4-3.09,10.76-3.1h8.51V28.83c0-3.36-.73-5.88-2.2-7.54s-3.93-2.49-7.4-2.49a27.58,27.58,0,0,0-10.31,2.38l-.5-1.37a28.46,28.46,0,0,1,10.82-2.45q5.85,0,8.52,2.85t2.67,8.48V47.6A13.11,13.11,0,0,0,461.83,52.87Zm-7.18-.11A15.29,15.29,0,0,0,459.48,47V34.75h-8.23q-6.27,0-9.77,2.67A9.13,9.13,0,0,0,438,45.15a9.53,9.53,0,0,0,2.57,7,9.39,9.39,0,0,0,7,2.56,12.35,12.35,0,0,0,7.11-2Z"/><path class="cls-4" d="M499.83,22.3q3.39,5,3.39,14.18T499.72,51a11.45,11.45,0,0,1-10.12,5.23,12.85,12.85,0,0,1-6.79-1.8,16.26,16.26,0,0,1-5-4.77l-.14,5.85H476.3V2.64l1.59-.22V24.07q4.83-6.7,12.12-6.71A11.21,11.21,0,0,1,499.83,22.3ZM498.49,50q3.11-4.75,3.11-13.51t-3-13.17a9.72,9.72,0,0,0-8.66-4.51,12,12,0,0,0-6.71,1.81,20.66,20.66,0,0,0-5.41,5.34v22q4.6,6.86,11.62,6.85A10.09,10.09,0,0,0,498.49,50Z"/><path class="cls-4" d="M529.52,18.33a18.53,18.53,0,0,1,5.16,3l-.94,1.14A19.37,19.37,0,0,0,529,19.66a14.76,14.76,0,0,0-5.31-.87,11.24,11.24,0,0,0-7,2.13,6.8,6.8,0,0,0-2.77,5.67,6.09,6.09,0,0,0,2.27,5c1.51,1.2,4.17,2.31,8,3.32a36.8,36.8,0,0,1,6.9,2.53,8.33,8.33,0,0,1,3.6,3.28,10.23,10.23,0,0,1,1.12,5.09,9.34,9.34,0,0,1-3.39,7.5,13.05,13.05,0,0,1-8.8,2.89,18,18,0,0,1-7-1.23,22,22,0,0,1-5.7-3.5l.94-1.09a19.28,19.28,0,0,0,5.3,3.29,17.39,17.39,0,0,0,6.39,1,11.83,11.83,0,0,0,7.57-2.34,7.82,7.82,0,0,0,3-6.53,8.9,8.9,0,0,0-1-4.44,7.57,7.57,0,0,0-3.21-2.85,34,34,0,0,0-6.5-2.31q-6.06-1.59-8.62-3.75a7.36,7.36,0,0,1-2.56-5.92,8.1,8.1,0,0,1,3.28-6.64,12.71,12.71,0,0,1,8.12-2.6A16.93,16.93,0,0,1,529.52,18.33Z"/><path class="cls-3" d="M125.16,71.55a3.34,3.34,0,0,1,1.35,2.92,3.49,3.49,0,0,1-1.4,3.06,6.28,6.28,0,0,1-3.7,1h-1.63V83h-2V70.57h3.59A6.42,6.42,0,0,1,125.16,71.55Zm-1.56,4.92a2.2,2.2,0,0,0,.79-2q0-2.37-3.06-2.37h-1.54V77h1.52A4,4,0,0,0,123.6,76.47Z"/><path class="cls-3" d="M140.22,77.83H138.3V83h-2V70.57h3.58a6.53,6.53,0,0,1,3.79.9,3.08,3.08,0,0,1,1.27,2.68,3,3,0,0,1-.68,2.07,4.39,4.39,0,0,1-2.11,1.25L145.67,83h-2.4Zm-.18-1.5a3.61,3.61,0,0,0,2.08-.5,2,2,0,0,0,.69-1.68,1.79,1.79,0,0,0-.71-1.57,4.05,4.05,0,0,0-2.26-.49H138.3v4.24Z"/><path class="cls-3" d="M157.31,70.57V83h-2V70.57Z"/><path class="cls-3" d="M177,70.57,172.91,83h-2.25L166.5,70.57h2.16L171.83,81,175,70.57Z"/><path class="cls-3" d="M192.71,83l-.93-3H187l-.93,3H184l4.19-12.41h2.5L194.84,83Zm-5.24-4.6h3.83l-1.92-6.18Z"/><path class="cls-3" d="M210.5,70.66a6.08,6.08,0,0,1,1.68,1l-1,1.24a4,4,0,0,0-2.53-.91,3.18,3.18,0,0,0-2.55,1.16,5.55,5.55,0,0,0-1,3.62,5.72,5.72,0,0,0,1,3.65,3.13,3.13,0,0,0,2.5,1.15A3.5,3.5,0,0,0,210,81.3a6.93,6.93,0,0,0,1.3-.74l1,1.21a4.65,4.65,0,0,1-1.59,1,5.88,5.88,0,0,1-2.23.41,5.58,5.58,0,0,1-2.91-.71,5.09,5.09,0,0,1-2-2.21,8,8,0,0,1-.7-3.53,7.48,7.48,0,0,1,.74-3.45,5.13,5.13,0,0,1,2-2.18,5.36,5.36,0,0,1,2.79-.75A5.85,5.85,0,0,1,210.5,70.66Z"/><path class="cls-3" d="M230.06,70.57l-4.24,7.65V83h-2V78.25l-4.17-7.68h2.22l3.06,6.05,3.1-6.05Z"/><path class="cls-3" d="M261,79.41a2.93,2.93,0,0,1-1.4,2.74,7.69,7.69,0,0,1-3.88.83h-3.74V70.57h3.21c3.49,0,5.23,1.07,5.24,3.21a2.26,2.26,0,0,1-.66,1.74,4.18,4.18,0,0,1-1.76.88C260,76.76,261,77.77,261,79.41Zm-7-7.3v3.63h1.85a3.09,3.09,0,0,0,1.82-.49,1.58,1.58,0,0,0,.69-1.38,1.44,1.44,0,0,0-.71-1.4,5.17,5.17,0,0,0-2.23-.38ZM258,81a1.63,1.63,0,0,0,.81-1.61,1.81,1.81,0,0,0-.79-1.65,3.69,3.69,0,0,0-2-.51h-2v4.2h1.72A5.09,5.09,0,0,0,258,81Z"/><path class="cls-3" d="M278.9,70.57l-4.24,7.65V83H272.6V78.25l-4.22-7.68h2.22l3.06,6.05,3.1-6.05Z"/><path class="cls-3" d="M308.47,71.88c1.2.87,1.81,2.47,1.81,4.8s-.61,3.93-1.81,4.88A7,7,0,0,1,304.05,83h-3.28V70.57h2.9A7.93,7.93,0,0,1,308.47,71.88Zm-5.68.25v9.34h1.41a4,4,0,0,0,2.86-1q1.08-1,1.08-3.72c0-1.79-.37-3-1.1-3.62a4.39,4.39,0,0,0-3-.93Z"/><path class="cls-3" d="M327.83,70.57l-.23,1.56h-5v3.74H327v1.6H322.6v4H328V83H320.6V70.57Z"/><path class="cls-3" d="M343.6,70.72a5.89,5.89,0,0,1,1.82,1.12l-1.08,1.21a4.61,4.61,0,0,0-1.42-.83,4.56,4.56,0,0,0-1.55-.27,3,3,0,0,0-1.65.42,1.35,1.35,0,0,0-.64,1.21,1.46,1.46,0,0,0,.23.84,2.12,2.12,0,0,0,.84.61,12,12,0,0,0,1.77.64,7.78,7.78,0,0,1,2.88,1.39,3,3,0,0,1,1,2.44,3.27,3.27,0,0,1-1.27,2.69,5.35,5.35,0,0,1-3.48,1,7.56,7.56,0,0,1-2.58-.43,5.89,5.89,0,0,1-2-1.22l1.08-1.26a5.13,5.13,0,0,0,3.46,1.3,3.27,3.27,0,0,0,1.92-.53,1.69,1.69,0,0,0,.76-1.47,1.84,1.84,0,0,0-.23-1,2.06,2.06,0,0,0-.82-.67,10.53,10.53,0,0,0-1.7-.63,7.64,7.64,0,0,1-3-1.43,2.84,2.84,0,0,1-.94-2.22,3,3,0,0,1,.55-1.75,3.65,3.65,0,0,1,1.52-1.17,5.56,5.56,0,0,1,2.2-.42A6.38,6.38,0,0,1,343.6,70.72Z"/><path class="cls-3" d="M357.75,70.57V83h-2V70.57Z"/><path class="cls-3" d="M376,70.7a6.68,6.68,0,0,1,1.85,1.06l-1.17,1.18a5.72,5.72,0,0,0-1.34-.76,4.48,4.48,0,0,0-1.5-.23,3.37,3.37,0,0,0-2.62,1.19,5.32,5.32,0,0,0-1,3.61,6.27,6.27,0,0,0,.87,3.71,3,3,0,0,0,2.57,1.15,5,5,0,0,0,2.4-.53V77.56h-2.22L373.6,76H378v6a8.45,8.45,0,0,1-4.47,1.17,5.06,5.06,0,0,1-4-1.65,8.39,8.39,0,0,1-.66-8.26,5.49,5.49,0,0,1,2.1-2.2,5.55,5.55,0,0,1,2.86-.76A6.54,6.54,0,0,1,376,70.7Z"/><path class="cls-3" d="M397.75,83H395L390,72.57l.07.62c0,.14.05.63.12,1.46s.1,1.8.1,2.91V83H388.4V70.57H391L396.16,81A16.43,16.43,0,0,1,396,79.3c-.07-.88-.1-1.68-.1-2.42V70.57h1.87Z"/></svg>